<?xml version="1.0" standalone="no"?>
<!DOCTYPE svg PUBLIC "-//W3C//DTD SVG 20010904//EN"
 "http://www.w3.org/TR/2001/REC-SVG-20010904/DTD/svg10.dtd">
<svg version="1.0" xmlns="http://www.w3.org/2000/svg"
 width="34.000000pt" height="31.000000pt" viewBox="0 0 34.000000 31.000000"
 preserveAspectRatio="xMidYMid meet">

<g transform="translate(0.000000,31.000000) scale(0.100000,-0.100000)"
fill="#000000" stroke="none">
<path d="M0 155 l0 -155 170 0 170 0 0 155 0 155 -170 0 -170 0 0 -155z m209
58 c8 -15 12 -16 22 -5 28 27 39 13 39 -46 0 -67 -5 -76 -32 -61 -15 8 -22 7
-32 -6 -9 -13 -26 -15 -86 -13 l-75 3 -3 59 c-4 86 -4 86 82 86 61 0 77 -3 85
-17z"/>
<path d="M70 155 l0 -45 55 0 55 0 0 45 0 45 -55 0 -55 0 0 -45z"/>
<path d="M220 170 c-12 -7 -12 -12 -3 -21 15 -15 26 -7 21 15 -2 11 -7 13 -18
6z"/>
</g>
</svg>
